<svg width="548" height="621" viewBox="0 0 548 621" fill="none" xmlns="http://www.w3.org/2000/svg">
<rect y="38" width="548" height="583" fill="#F6DE26"/>
<rect x="85" y="75" width="420" height="434" fill="white"/>
<rect x="85" y="75" width="14" height="14" fill="#D9D9D9"/>
<rect x="99" y="89" width="14" height="14" fill="#D9D9D9"/>
<rect x="99" y="117" width="14" height="14" fill="#D9D9D9"/>
<rect x="99" y="145" width="14" height="14" fill="#D9D9D9"/>
<rect x="99" y="173" width="14" height="14" fill="#D9D9D9"/>
<rect x="99" y="201" width="14" height="14" fill="#D9D9D9"/>
<rect x="99" y="229" width="14" height="14" fill="#D9D9D9"/>
<rect x="99" y="257" width="14" height="14" fill="#D9D9D9"/>
<rect x="99" y="285" width="14" height="14" fill="#D9D9D9"/>
<rect x="99" y="313" width="14" height="14" fill="#D9D9D9"/>
<rect x="99" y="341" width="14" height="14" fill="#D9D9D9"/>
<rect x="99" y="369" width="14" height="14" fill="#D9D9D9"/>
<rect x="99" y="397" width="14" height="14" fill="#D9D9D9"/>
<rect x="99" y="425" width="14" height="14" fill="#D9D9D9"/>
<rect x="99" y="453" width="14" height="14" fill="#D9D9D9"/>
<rect x="99" y="481" width="14" height="14" fill="#D9D9D9"/>
<rect x="127" y="481" width="14" height="14" fill="#D9D9D9"/>
<rect x="155" y="481" width="14" height="14" fill="#D9D9D9"/>
<rect x="183" y="481" width="14" height="14" fill="#D9D9D9"/>
<rect x="211" y="481" width="14" height="14" fill="#D9D9D9"/>
<rect x="239" y="481" width="14" height="14" fill="#D9D9D9"/>
<rect x="267" y="481" width="14" height="14" fill="#D9D9D9"/>
<rect x="295" y="481" width="14" height="14" fill="#D9D9D9"/>
<rect x="323" y="481" width="14" height="14" fill="#D9D9D9"/>
<rect x="351" y="481" width="14" height="14" fill="#D9D9D9"/>
<rect x="379" y="481" width="14" height="14" fill="#D9D9D9"/>
<rect x="407" y="481" width="14" height="14" fill="#D9D9D9"/>
<rect x="435" y="481" width="14" height="14" fill="#D9D9D9"/>
<rect x="463" y="481" width="14" height="14" fill="#D9D9D9"/>
<rect x="113" y="131" width="14" height="14" fill="#D9D9D9"/>
<rect x="141" y="131" width="14" height="14" fill="#D9D9D9"/>
<rect x="169" y="131" width="14" height="14" fill="#D9D9D9"/>
<rect x="197" y="131" width="14" height="14" fill="#D9D9D9"/>
<rect x="225" y="131" width="14" height="14" fill="#D9D9D9"/>
<rect x="253" y="131" width="14" height="14" fill="#D9D9D9"/>
<rect x="281" y="131" width="14" height="14" fill="#D9D9D9"/>
<rect x="309" y="131" width="14" height="14" fill="#D9D9D9"/>
<rect x="337" y="131" width="14" height="14" fill="#D9D9D9"/>
<rect x="365" y="131" width="14" height="14" fill="#D9D9D9"/>
<rect x="393" y="131" width="14" height="14" fill="#D9D9D9"/>
<rect x="421" y="131" width="14" height="14" fill="#D9D9D9"/>
<rect x="449" y="131" width="14" height="14" fill="#D9D9D9"/>
<rect x="477" y="131" width="14" height="14" fill="#D9D9D9"/>
<rect x="491" y="117" width="14" height="14" fill="#D9D9D9"/>
<rect x="127" y="117" width="14" height="14" fill="#D9D9D9"/>
<rect x="155" y="117" width="14" height="14" fill="#D9D9D9"/>
<rect x="183" y="117" width="14" height="14" fill="#D9D9D9"/>
<rect x="211" y="117" width="14" height="14" fill="#D9D9D9"/>
<rect x="239" y="117" width="14" height="14" fill="#D9D9D9"/>
<rect x="267" y="117" width="14" height="14" fill="#D9D9D9"/>
<rect x="295" y="117" width="14" height="14" fill="#D9D9D9"/>
<rect x="323" y="117" width="14" height="14" fill="#D9D9D9"/>
<rect x="351" y="117" width="14" height="14" fill="#D9D9D9"/>
<rect x="379" y="117" width="14" height="14" fill="#D9D9D9"/>
<rect x="407" y="117" width="14" height="14" fill="#D9D9D9"/>
<rect x="435" y="117" width="14" height="14" fill="#D9D9D9"/>
<rect x="463" y="117" width="14" height="14" fill="#D9D9D9"/>
<rect x="113" y="159" width="14" height="14" fill="#D9D9D9"/>
<rect x="141" y="159" width="14" height="14" fill="#D9D9D9"/>
<rect x="169" y="159" width="14" height="14" fill="#D9D9D9"/>
<rect x="197" y="159" width="14" height="14" fill="#D9D9D9"/>
<rect x="225" y="159" width="14" height="14" fill="#D9D9D9"/>
<rect x="253" y="159" width="14" height="14" fill="#D9D9D9"/>
<rect x="281" y="159" width="14" height="14" fill="#D9D9D9"/>
<rect x="309" y="159" width="14" height="14" fill="#D9D9D9"/>
<rect x="337" y="159" width="14" height="14" fill="#D9D9D9"/>
<rect x="365" y="159" width="14" height="14" fill="#D9D9D9"/>
<rect x="393" y="159" width="14" height="14" fill="#D9D9D9"/>
<rect x="421" y="159" width="14" height="14" fill="#D9D9D9"/>
<rect x="449" y="159" width="14" height="14" fill="#D9D9D9"/>
<rect x="477" y="159" width="14" height="14" fill="#D9D9D9"/>
<rect x="491" y="145" width="14" height="14" fill="#D9D9D9"/>
<rect x="127" y="145" width="14" height="14" fill="#D9D9D9"/>
<rect x="155" y="145" width="14" height="14" fill="#D9D9D9"/>
<rect x="183" y="145" width="14" height="14" fill="#D9D9D9"/>
<rect x="211" y="145" width="14" height="14" fill="#D9D9D9"/>
<rect x="239" y="145" width="14" height="14" fill="#D9D9D9"/>
<rect x="267" y="145" width="14" height="14" fill="#D9D9D9"/>
<rect x="295" y="145" width="14" height="14" fill="#D9D9D9"/>
<rect x="323" y="145" width="14" height="14" fill="#D9D9D9"/>
<rect x="351" y="145" width="14" height="14" fill="#D9D9D9"/>
<rect x="379" y="145" width="14" height="14" fill="#D9D9D9"/>
<rect x="407" y="145" width="14" height="14" fill="#D9D9D9"/>
<rect x="435" y="145" width="14" height="14" fill="#D9D9D9"/>
<rect x="463" y="145" width="14" height="14" fill="#D9D9D9"/>
<rect x="113" y="187" width="14" height="14" fill="#D9D9D9"/>
<rect x="141" y="187" width="14" height="14" fill="#D9D9D9"/>
<rect x="169" y="187" width="14" height="14" fill="#D9D9D9"/>
<rect x="197" y="187" width="14" height="14" fill="#D9D9D9"/>
<rect x="225" y="187" width="14" height="14" fill="#D9D9D9"/>
<rect x="253" y="187" width="14" height="14" fill="#D9D9D9"/>
<rect x="281" y="187" width="14" height="14" fill="#D9D9D9"/>
<rect x="309" y="187" width="14" height="14" fill="#D9D9D9"/>
<rect x="337" y="187" width="14" height="14" fill="#D9D9D9"/>
<rect x="365" y="187" width="14" height="14" fill="#D9D9D9"/>
<rect x="393" y="187" width="14" height="14" fill="#D9D9D9"/>
<rect x="421" y="187" width="14" height="14" fill="#D9D9D9"/>
<rect x="449" y="187" width="14" height="14" fill="#D9D9D9"/>
<rect x="477" y="187" width="14" height="14" fill="#D9D9D9"/>
<rect x="491" y="173" width="14" height="14" fill="#D9D9D9"/>
<rect x="127" y="173" width="14" height="14" fill="#D9D9D9"/>
<rect x="155" y="173" width="14" height="14" fill="#D9D9D9"/>
<rect x="183" y="173" width="14" height="14" fill="#D9D9D9"/>
<rect x="211" y="173" width="14" height="14" fill="#D9D9D9"/>
<rect x="239" y="173" width="14" height="14" fill="#D9D9D9"/>
<rect x="267" y="173" width="14" height="14" fill="#D9D9D9"/>
<rect x="295" y="173" width="14" height="14" fill="#D9D9D9"/>
<rect x="323" y="173" width="14" height="14" fill="#D9D9D9"/>
<rect x="351" y="173" width="14" height="14" fill="#D9D9D9"/>
<rect x="379" y="173" width="14" height="14" fill="#D9D9D9"/>
<rect x="407" y="173" width="14" height="14" fill="#D9D9D9"/>
<rect x="435" y="173" width="14" height="14" fill="#D9D9D9"/>
<rect x="463" y="173" width="14" height="14" fill="#D9D9D9"/>
<rect x="113" y="215" width="14" height="14" fill="#D9D9D9"/>
<rect x="141" y="215" width="14" height="14" fill="#D9D9D9"/>
<rect x="169" y="215" width="14" height="14" fill="#D9D9D9"/>
<rect x="197" y="215" width="14" height="14" fill="#D9D9D9"/>
<rect x="225" y="215" width="14" height="14" fill="#D9D9D9"/>
<rect x="253" y="215" width="14" height="14" fill="#D9D9D9"/>
<rect x="281" y="215" width="14" height="14" fill="#D9D9D9"/>
<rect x="309" y="215" width="14" height="14" fill="#D9D9D9"/>
<rect x="337" y="215" width="14" height="14" fill="#D9D9D9"/>
<rect x="365" y="215" width="14" height="14" fill="#D9D9D9"/>
<rect x="393" y="215" width="14" height="14" fill="#D9D9D9"/>
<rect x="421" y="215" width="14" height="14" fill="#D9D9D9"/>
<rect x="449" y="215" width="14" height="14" fill="#D9D9D9"/>
<rect x="477" y="215" width="14" height="14" fill="#D9D9D9"/>
<rect x="491" y="201" width="14" height="14" fill="#D9D9D9"/>
<rect x="127" y="201" width="14" height="14" fill="#D9D9D9"/>
<rect x="155" y="201" width="14" height="14" fill="#D9D9D9"/>
<rect x="183" y="201" width="14" height="14" fill="#D9D9D9"/>
<rect x="211" y="201" width="14" height="14" fill="#D9D9D9"/>
<rect x="239" y="201" width="14" height="14" fill="#D9D9D9"/>
<rect x="267" y="201" width="14" height="14" fill="#D9D9D9"/>
<rect x="295" y="201" width="14" height="14" fill="#D9D9D9"/>
<rect x="323" y="201" width="14" height="14" fill="#D9D9D9"/>
<rect x="351" y="201" width="14" height="14" fill="#D9D9D9"/>
<rect x="379" y="201" width="14" height="14" fill="#D9D9D9"/>
<rect x="407" y="201" width="14" height="14" fill="#D9D9D9"/>
<rect x="435" y="201" width="14" height="14" fill="#D9D9D9"/>
<rect x="463" y="201" width="14" height="14" fill="#D9D9D9"/>
<rect x="113" y="243" width="14" height="14" fill="#D9D9D9"/>
<rect x="141" y="243" width="14" height="14" fill="#D9D9D9"/>
<rect x="169" y="243" width="14" height="14" fill="#D9D9D9"/>
<rect x="197" y="243" width="14" height="14" fill="#D9D9D9"/>
<rect x="225" y="243" width="14" height="14" fill="#D9D9D9"/>
<rect x="253" y="243" width="14" height="14" fill="#D9D9D9"/>
<rect x="281" y="243" width="14" height="14" fill="#D9D9D9"/>
<rect x="309" y="243" width="14" height="14" fill="#D9D9D9"/>
<rect x="337" y="243" width="14" height="14" fill="#D9D9D9"/>
<rect x="365" y="243" width="14" height="14" fill="#D9D9D9"/>
<rect x="393" y="243" width="14" height="14" fill="#D9D9D9"/>
<rect x="421" y="243" width="14" height="14" fill="#D9D9D9"/>
<rect x="449" y="243" width="14" height="14" fill="#D9D9D9"/>
<rect x="477" y="243" width="14" height="14" fill="#D9D9D9"/>
<rect x="491" y="229" width="14" height="14" fill="#D9D9D9"/>
<rect x="127" y="229" width="14" height="14" fill="#D9D9D9"/>
<rect x="155" y="229" width="14" height="14" fill="#D9D9D9"/>
<rect x="183" y="229" width="14" height="14" fill="#D9D9D9"/>
<rect x="211" y="229" width="14" height="14" fill="#D9D9D9"/>
<rect x="239" y="229" width="14" height="14" fill="#D9D9D9"/>
<rect x="267" y="229" width="14" height="14" fill="#D9D9D9"/>
<rect x="295" y="229" width="14" height="14" fill="#D9D9D9"/>
<rect x="323" y="229" width="14" height="14" fill="#D9D9D9"/>
<rect x="351" y="229" width="14" height="14" fill="#D9D9D9"/>
<rect x="379" y="229" width="14" height="14" fill="#D9D9D9"/>
<rect x="407" y="229" width="14" height="14" fill="#D9D9D9"/>
<rect x="435" y="229" width="14" height="14" fill="#D9D9D9"/>
<rect x="463" y="229" width="14" height="14" fill="#D9D9D9"/>
<rect x="113" y="271" width="14" height="14" fill="#D9D9D9"/>
<rect x="141" y="271" width="14" height="14" fill="#D9D9D9"/>
<rect x="169" y="271" width="14" height="14" fill="#D9D9D9"/>
<rect x="197" y="271" width="14" height="14" fill="#D9D9D9"/>
<rect x="225" y="271" width="14" height="14" fill="#D9D9D9"/>
<rect x="253" y="271" width="14" height="14" fill="#D9D9D9"/>
<rect x="281" y="271" width="14" height="14" fill="#D9D9D9"/>
<rect x="309" y="271" width="14" height="14" fill="#D9D9D9"/>
<rect x="337" y="271" width="14" height="14" fill="#D9D9D9"/>
<rect x="365" y="271" width="14" height="14" fill="#D9D9D9"/>
<rect x="393" y="271" width="14" height="14" fill="#D9D9D9"/>
<rect x="421" y="271" width="14" height="14" fill="#D9D9D9"/>
<rect x="449" y="271" width="14" height="14" fill="#D9D9D9"/>
<rect x="477" y="271" width="14" height="14" fill="#D9D9D9"/>
<rect x="491" y="257" width="14" height="14" fill="#D9D9D9"/>
<rect x="127" y="257" width="14" height="14" fill="#D9D9D9"/>
<rect x="155" y="257" width="14" height="14" fill="#D9D9D9"/>
<rect x="183" y="257" width="14" height="14" fill="#D9D9D9"/>
<rect x="211" y="257" width="14" height="14" fill="#D9D9D9"/>
<rect x="239" y="257" width="14" height="14" fill="#D9D9D9"/>
<rect x="267" y="257" width="14" height="14" fill="#D9D9D9"/>
<rect x="295" y="257" width="14" height="14" fill="#D9D9D9"/>
<rect x="323" y="257" width="14" height="14" fill="#D9D9D9"/>
<rect x="351" y="257" width="14" height="14" fill="#D9D9D9"/>
<rect x="379" y="257" width="14" height="14" fill="#D9D9D9"/>
<rect x="407" y="257" width="14" height="14" fill="#D9D9D9"/>
<rect x="435" y="257" width="14" height="14" fill="#D9D9D9"/>
<rect x="463" y="257" width="14" height="14" fill="#D9D9D9"/>
<rect x="113" y="299" width="14" height="14" fill="#D9D9D9"/>
<rect x="141" y="299" width="14" height="14" fill="#D9D9D9"/>
<rect x="169" y="299" width="14" height="14" fill="#D9D9D9"/>
<rect x="197" y="299" width="14" height="14" fill="#D9D9D9"/>
<rect x="225" y="299" width="14" height="14" fill="#D9D9D9"/>
<rect x="253" y="299" width="14" height="14" fill="#D9D9D9"/>
<rect x="281" y="299" width="14" height="14" fill="#D9D9D9"/>
<rect x="309" y="299" width="14" height="14" fill="#D9D9D9"/>
<rect x="337" y="299" width="14" height="14" fill="#D9D9D9"/>
<rect x="365" y="299" width="14" height="14" fill="#D9D9D9"/>
<rect x="393" y="299" width="14" height="14" fill="#D9D9D9"/>
<rect x="421" y="299" width="14" height="14" fill="#D9D9D9"/>
<rect x="449" y="299" width="14" height="14" fill="#D9D9D9"/>
<rect x="477" y="299" width="14" height="14" fill="#D9D9D9"/>
<rect x="491" y="285" width="14" height="14" fill="#D9D9D9"/>
<rect x="127" y="285" width="14" height="14" fill="#D9D9D9"/>
<rect x="155" y="285" width="14" height="14" fill="#D9D9D9"/>
<rect x="183" y="285" width="14" height="14" fill="#D9D9D9"/>
<rect x="211" y="285" width="14" height="14" fill="#D9D9D9"/>
<rect x="239" y="285" width="14" height="14" fill="#D9D9D9"/>
<rect x="267" y="285" width="14" height="14" fill="#D9D9D9"/>
<rect x="295" y="285" width="14" height="14" fill="#D9D9D9"/>
<rect x="323" y="285" width="14" height="14" fill="#D9D9D9"/>
<rect x="351" y="285" width="14" height="14" fill="#D9D9D9"/>
<rect x="379" y="285" width="14" height="14" fill="#D9D9D9"/>
<rect x="407" y="285" width="14" height="14" fill="#D9D9D9"/>
<rect x="435" y="285" width="14" height="14" fill="#D9D9D9"/>
<rect x="463" y="285" width="14" height="14" fill="#D9D9D9"/>
<rect x="113" y="327" width="14" height="14" fill="#D9D9D9"/>
<rect x="141" y="327" width="14" height="14" fill="#D9D9D9"/>
<rect x="169" y="327" width="14" height="14" fill="#D9D9D9"/>
<rect x="197" y="327" width="14" height="14" fill="#D9D9D9"/>
<rect x="225" y="327" width="14" height="14" fill="#D9D9D9"/>
<rect x="253" y="327" width="14" height="14" fill="#D9D9D9"/>
<rect x="281" y="327" width="14" height="14" fill="#D9D9D9"/>
<rect x="309" y="327" width="14" height="14" fill="#D9D9D9"/>
<rect x="337" y="327" width="14" height="14" fill="#D9D9D9"/>
<rect x="365" y="327" width="14" height="14" fill="#D9D9D9"/>
<rect x="393" y="327" width="14" height="14" fill="#D9D9D9"/>
<rect x="421" y="327" width="14" height="14" fill="#D9D9D9"/>
<rect x="449" y="327" width="14" height="14" fill="#D9D9D9"/>
<rect x="477" y="327" width="14" height="14" fill="#D9D9D9"/>
<rect x="491" y="313" width="14" height="14" fill="#D9D9D9"/>
<rect x="127" y="313" width="14" height="14" fill="#D9D9D9"/>
<rect x="155" y="313" width="14" height="14" fill="#D9D9D9"/>
<rect x="183" y="313" width="14" height="14" fill="#D9D9D9"/>
<rect x="211" y="313" width="14" height="14" fill="#D9D9D9"/>
<rect x="239" y="313" width="14" height="14" fill="#D9D9D9"/>
<rect x="267" y="313" width="14" height="14" fill="#D9D9D9"/>
<rect x="295" y="313" width="14" height="14" fill="#D9D9D9"/>
<rect x="323" y="313" width="14" height="14" fill="#D9D9D9"/>
<rect x="351" y="313" width="14" height="14" fill="#D9D9D9"/>
<rect x="379" y="313" width="14" height="14" fill="#D9D9D9"/>
<rect x="407" y="313" width="14" height="14" fill="#D9D9D9"/>
<rect x="435" y="313" width="14" height="14" fill="#D9D9D9"/>
<rect x="463" y="313" width="14" height="14" fill="#D9D9D9"/>
<rect x="113" y="355" width="14" height="14" fill="#D9D9D9"/>
<rect x="141" y="355" width="14" height="14" fill="#D9D9D9"/>
<rect x="169" y="355" width="14" height="14" fill="#D9D9D9"/>
<rect x="197" y="355" width="14" height="14" fill="#D9D9D9"/>
<rect x="225" y="355" width="14" height="14" fill="#D9D9D9"/>
<rect x="253" y="355" width="14" height="14" fill="#D9D9D9"/>
<rect x="281" y="355" width="14" height="14" fill="#D9D9D9"/>
<rect x="309" y="355" width="14" height="14" fill="#D9D9D9"/>
<rect x="337" y="355" width="14" height="14" fill="#D9D9D9"/>
<rect x="365" y="355" width="14" height="14" fill="#D9D9D9"/>
<rect x="393" y="355" width="14" height="14" fill="#D9D9D9"/>
<rect x="421" y="355" width="14" height="14" fill="#D9D9D9"/>
<rect x="449" y="355" width="14" height="14" fill="#D9D9D9"/>
<rect x="477" y="355" width="14" height="14" fill="#D9D9D9"/>
<rect x="491" y="341" width="14" height="14" fill="#D9D9D9"/>
<rect x="127" y="341" width="14" height="14" fill="#D9D9D9"/>
<rect x="155" y="341" width="14" height="14" fill="#D9D9D9"/>
<rect x="183" y="341" width="14" height="14" fill="#D9D9D9"/>
<rect x="211" y="341" width="14" height="14" fill="#D9D9D9"/>
<rect x="239" y="341" width="14" height="14" fill="#D9D9D9"/>
<rect x="267" y="341" width="14" height="14" fill="#D9D9D9"/>
<rect x="295" y="341" width="14" height="14" fill="#D9D9D9"/>
<rect x="323" y="341" width="14" height="14" fill="#D9D9D9"/>
<rect x="351" y="341" width="14" height="14" fill="#D9D9D9"/>
<rect x="379" y="341" width="14" height="14" fill="#D9D9D9"/>
<rect x="407" y="341" width="14" height="14" fill="#D9D9D9"/>
<rect x="435" y="341" width="14" height="14" fill="#D9D9D9"/>
<rect x="463" y="341" width="14" height="14" fill="#D9D9D9"/>
<rect x="113" y="383" width="14" height="14" fill="#D9D9D9"/>
<rect x="141" y="383" width="14" height="14" fill="#D9D9D9"/>
<rect x="169" y="383" width="14" height="14" fill="#D9D9D9"/>
<rect x="197" y="383" width="14" height="14" fill="#D9D9D9"/>
<rect x="225" y="383" width="14" height="14" fill="#D9D9D9"/>
<rect x="253" y="383" width="14" height="14" fill="#D9D9D9"/>
<rect x="281" y="383" width="14" height="14" fill="#D9D9D9"/>
<rect x="309" y="383" width="14" height="14" fill="#D9D9D9"/>
<rect x="337" y="383" width="14" height="14" fill="#D9D9D9"/>
<rect x="365" y="383" width="14" height="14" fill="#D9D9D9"/>
<rect x="393" y="383" width="14" height="14" fill="#D9D9D9"/>
<rect x="421" y="383" width="14" height="14" fill="#D9D9D9"/>
<rect x="449" y="383" width="14" height="14" fill="#D9D9D9"/>
<rect x="477" y="383" width="14" height="14" fill="#D9D9D9"/>
<rect x="491" y="369" width="14" height="14" fill="#D9D9D9"/>
<rect x="127" y="369" width="14" height="14" fill="#D9D9D9"/>
<rect x="155" y="369" width="14" height="14" fill="#D9D9D9"/>
<rect x="183" y="369" width="14" height="14" fill="#D9D9D9"/>
<rect x="211" y="369" width="14" height="14" fill="#D9D9D9"/>
<rect x="239" y="369" width="14" height="14" fill="#D9D9D9"/>
<rect x="267" y="369" width="14" height="14" fill="#D9D9D9"/>
<rect x="295" y="369" width="14" height="14" fill="#D9D9D9"/>
<rect x="323" y="369" width="14" height="14" fill="#D9D9D9"/>
<rect x="351" y="369" width="14" height="14" fill="#D9D9D9"/>
<rect x="379" y="369" width="14" height="14" fill="#D9D9D9"/>
<rect x="407" y="369" width="14" height="14" fill="#D9D9D9"/>
<rect x="435" y="369" width="14" height="14" fill="#D9D9D9"/>
<rect x="463" y="369" width="14" height="14" fill="#D9D9D9"/>
<rect x="113" y="411" width="14" height="14" fill="#D9D9D9"/>
<rect x="141" y="411" width="14" height="14" fill="#D9D9D9"/>
<rect x="169" y="411" width="14" height="14" fill="#D9D9D9"/>
<rect x="197" y="411" width="14" height="14" fill="#D9D9D9"/>
<rect x="225" y="411" width="14" height="14" fill="#D9D9D9"/>
<rect x="253" y="411" width="14" height="14" fill="#D9D9D9"/>
<rect x="281" y="411" width="14" height="14" fill="#D9D9D9"/>
<rect x="309" y="411" width="14" height="14" fill="#D9D9D9"/>
<rect x="337" y="411" width="14" height="14" fill="#D9D9D9"/>
<rect x="365" y="411" width="14" height="14" fill="#D9D9D9"/>
<rect x="393" y="411" width="14" height="14" fill="#D9D9D9"/>
<rect x="421" y="411" width="14" height="14" fill="#D9D9D9"/>
<rect x="449" y="411" width="14" height="14" fill="#D9D9D9"/>
<rect x="477" y="411" width="14" height="14" fill="#D9D9D9"/>
<rect x="491" y="397" width="14" height="14" fill="#D9D9D9"/>
<rect x="127" y="397" width="14" height="14" fill="#D9D9D9"/>
<rect x="155" y="397" width="14" height="14" fill="#D9D9D9"/>
<rect x="183" y="397" width="14" height="14" fill="#D9D9D9"/>
<rect x="211" y="397" width="14" height="14" fill="#D9D9D9"/>
<rect x="239" y="397" width="14" height="14" fill="#D9D9D9"/>
<rect x="267" y="397" width="14" height="14" fill="#D9D9D9"/>
<rect x="295" y="397" width="14" height="14" fill="#D9D9D9"/>
<rect x="323" y="397" width="14" height="14" fill="#D9D9D9"/>
<rect x="351" y="397" width="14" height="14" fill="#D9D9D9"/>
<rect x="379" y="397" width="14" height="14" fill="#D9D9D9"/>
<rect x="407" y="397" width="14" height="14" fill="#D9D9D9"/>
<rect x="435" y="397" width="14" height="14" fill="#D9D9D9"/>
<rect x="463" y="397" width="14" height="14" fill="#D9D9D9"/>
<rect x="113" y="439" width="14" height="14" fill="#D9D9D9"/>
<rect x="141" y="439" width="14" height="14" fill="#D9D9D9"/>
<rect x="169" y="439" width="14" height="14" fill="#D9D9D9"/>
<rect x="197" y="439" width="14" height="14" fill="#D9D9D9"/>
<rect x="225" y="439" width="14" height="14" fill="#D9D9D9"/>
<rect x="253" y="439" width="14" height="14" fill="#D9D9D9"/>
<rect x="281" y="439" width="14" height="14" fill="#D9D9D9"/>
<rect x="309" y="439" width="14" height="14" fill="#D9D9D9"/>
<rect x="337" y="439" width="14" height="14" fill="#D9D9D9"/>
<rect x="365" y="439" width="14" height="14" fill="#D9D9D9"/>
<rect x="393" y="439" width="14" height="14" fill="#D9D9D9"/>
<rect x="421" y="439" width="14" height="14" fill="#D9D9D9"/>
<rect x="449" y="439" width="14" height="14" fill="#D9D9D9"/>
<rect x="477" y="439" width="14" height="14" fill="#D9D9D9"/>
<rect x="491" y="425" width="14" height="14" fill="#D9D9D9"/>
<rect x="127" y="425" width="14" height="14" fill="#D9D9D9"/>
<rect x="155" y="425" width="14" height="14" fill="#D9D9D9"/>
<rect x="183" y="425" width="14" height="14" fill="#D9D9D9"/>
<rect x="211" y="425" width="14" height="14" fill="#D9D9D9"/>
<rect x="239" y="425" width="14" height="14" fill="#D9D9D9"/>
<rect x="267" y="425" width="14" height="14" fill="#D9D9D9"/>
<rect x="295" y="425" width="14" height="14" fill="#D9D9D9"/>
<rect x="323" y="425" width="14" height="14" fill="#D9D9D9"/>
<rect x="351" y="425" width="14" height="14" fill="#D9D9D9"/>
<rect x="379" y="425" width="14" height="14" fill="#D9D9D9"/>
<rect x="407" y="425" width="14" height="14" fill="#D9D9D9"/>
<rect x="435" y="425" width="14" height="14" fill="#D9D9D9"/>
<rect x="463" y="425" width="14" height="14" fill="#D9D9D9"/>
<rect x="113" y="467" width="14" height="14" fill="#D9D9D9"/>
<rect x="141" y="467" width="14" height="14" fill="#D9D9D9"/>
<rect x="169" y="467" width="14" height="14" fill="#D9D9D9"/>
<rect x="197" y="467" width="14" height="14" fill="#D9D9D9"/>
<rect x="225" y="467" width="14" height="14" fill="#D9D9D9"/>
<rect x="253" y="467" width="14" height="14" fill="#D9D9D9"/>
<rect x="281" y="467" width="14" height="14" fill="#D9D9D9"/>
<rect x="309" y="467" width="14" height="14" fill="#D9D9D9"/>
<rect x="337" y="467" width="14" height="14" fill="#D9D9D9"/>
<rect x="365" y="467" width="14" height="14" fill="#D9D9D9"/>
<rect x="393" y="467" width="14" height="14" fill="#D9D9D9"/>
<rect x="421" y="467" width="14" height="14" fill="#D9D9D9"/>
<rect x="449" y="467" width="14" height="14" fill="#D9D9D9"/>
<rect x="477" y="467" width="14" height="14" fill="#D9D9D9"/>
<rect x="491" y="453" width="14" height="14" fill="#D9D9D9"/>
<rect x="127" y="453" width="14" height="14" fill="#D9D9D9"/>
<rect x="155" y="453" width="14" height="14" fill="#D9D9D9"/>
<rect x="183" y="453" width="14" height="14" fill="#D9D9D9"/>
<rect x="211" y="453" width="14" height="14" fill="#D9D9D9"/>
<rect x="239" y="453" width="14" height="14" fill="#D9D9D9"/>
<rect x="267" y="453" width="14" height="14" fill="#D9D9D9"/>
<rect x="295" y="453" width="14" height="14" fill="#D9D9D9"/>
<rect x="323" y="453" width="14" height="14" fill="#D9D9D9"/>
<rect x="351" y="453" width="14" height="14" fill="#D9D9D9"/>
<rect x="379" y="453" width="14" height="14" fill="#D9D9D9"/>
<rect x="407" y="453" width="14" height="14" fill="#D9D9D9"/>
<rect x="435" y="453" width="14" height="14" fill="#D9D9D9"/>
<rect x="463" y="453" width="14" height="14" fill="#D9D9D9"/>
<rect x="113" y="103" width="14" height="14" fill="#D9D9D9"/>
<rect x="141" y="103" width="14" height="14" fill="#D9D9D9"/>
<rect x="169" y="103" width="14" height="14" fill="#D9D9D9"/>
<rect x="197" y="103" width="14" height="14" fill="#D9D9D9"/>
<rect x="225" y="103" width="14" height="14" fill="#D9D9D9"/>
<rect x="253" y="103" width="14" height="14" fill="#D9D9D9"/>
<rect x="281" y="103" width="14" height="14" fill="#D9D9D9"/>
<rect x="309" y="103" width="14" height="14" fill="#D9D9D9"/>
<rect x="337" y="103" width="14" height="14" fill="#D9D9D9"/>
<rect x="365" y="103" width="14" height="14" fill="#D9D9D9"/>
<rect x="393" y="103" width="14" height="14" fill="#D9D9D9"/>
<rect x="421" y="103" width="14" height="14" fill="#D9D9D9"/>
<rect x="449" y="103" width="14" height="14" fill="#D9D9D9"/>
<rect x="477" y="103" width="14" height="14" fill="#D9D9D9"/>
<rect x="491" y="89" width="14" height="14" fill="#D9D9D9"/>
<rect x="127" y="89" width="14" height="14" fill="#D9D9D9"/>
<rect x="155" y="89" width="14" height="14" fill="#D9D9D9"/>
<rect x="183" y="89" width="14" height="14" fill="#D9D9D9"/>
<rect x="211" y="89" width="14" height="14" fill="#D9D9D9"/>
<rect x="239" y="89" width="14" height="14" fill="#D9D9D9"/>
<rect x="267" y="89" width="14" height="14" fill="#D9D9D9"/>
<rect x="295" y="89" width="14" height="14" fill="#D9D9D9"/>
<rect x="323" y="89" width="14" height="14" fill="#D9D9D9"/>
<rect x="351" y="89" width="14" height="14" fill="#D9D9D9"/>
<rect x="379" y="89" width="14" height="14" fill="#D9D9D9"/>
<rect x="407" y="89" width="14" height="14" fill="#D9D9D9"/>
<rect x="435" y="89" width="14" height="14" fill="#D9D9D9"/>
<rect x="463" y="89" width="14" height="14" fill="#D9D9D9"/>
<rect x="491" y="481" width="14" height="14" fill="#D9D9D9"/>
<rect x="477" y="495" width="14" height="14" fill="#D9D9D9"/>
<rect x="449" y="495" width="14" height="14" fill="#D9D9D9"/>
<rect x="421" y="495" width="14" height="14" fill="#D9D9D9"/>
<rect x="393" y="495" width="14" height="14" fill="#D9D9D9"/>
<rect x="365" y="495" width="14" height="14" fill="#D9D9D9"/>
<rect x="337" y="495" width="14" height="14" fill="#D9D9D9"/>
<rect x="309" y="495" width="14" height="14" fill="#D9D9D9"/>
<rect x="281" y="495" width="14" height="14" fill="#D9D9D9"/>
<rect x="253" y="495" width="14" height="14" fill="#D9D9D9"/>
<rect x="225" y="495" width="14" height="14" fill="#D9D9D9"/>
<rect x="197" y="495" width="14" height="14" fill="#D9D9D9"/>
<rect x="169" y="495" width="14" height="14" fill="#D9D9D9"/>
<rect x="141" y="495" width="14" height="14" fill="#D9D9D9"/>
<rect x="113" y="495" width="14" height="14" fill="#D9D9D9"/>
<rect x="85" y="495" width="14" height="14" fill="#D9D9D9"/>
<rect x="85" y="467" width="14" height="14" fill="#D9D9D9"/>
<rect x="85" y="439" width="14" height="14" fill="#D9D9D9"/>
<rect x="85" y="411" width="14" height="14" fill="#D9D9D9"/>
<rect x="85" y="383" width="14" height="14" fill="#D9D9D9"/>
<rect x="85" y="355" width="14" height="14" fill="#D9D9D9"/>
<rect x="85" y="327" width="14" height="14" fill="#D9D9D9"/>
<rect x="85" y="299" width="14" height="14" fill="#D9D9D9"/>
<rect x="85" y="271" width="14" height="14" fill="#D9D9D9"/>
<rect x="85" y="243" width="14" height="14" fill="#D9D9D9"/>
<rect x="85" y="215" width="14" height="14" fill="#D9D9D9"/>
<rect x="85" y="187" width="14" height="14" fill="#D9D9D9"/>
<rect x="85" y="159" width="14" height="14" fill="#D9D9D9"/>
<rect x="85" y="131" width="14" height="14" fill="#D9D9D9"/>
<rect x="85" y="103" width="14" height="14" fill="#D9D9D9"/>
<rect x="113" y="75" width="14" height="14" fill="#D9D9D9"/>
<rect x="141" y="75" width="14" height="14" fill="#D9D9D9"/>
<rect x="169" y="75" width="14" height="14" fill="#D9D9D9"/>
<rect x="197" y="75" width="14" height="14" fill="#D9D9D9"/>
<rect x="225" y="75" width="14" height="14" fill="#D9D9D9"/>
<rect x="253" y="75" width="14" height="14" fill="#D9D9D9"/>
<rect x="281" y="75" width="14" height="14" fill="#D9D9D9"/>
<rect x="309" y="75" width="14" height="14" fill="#D9D9D9"/>
<rect x="337" y="75" width="14" height="14" fill="#D9D9D9"/>
<rect x="365" y="75" width="14" height="14" fill="#D9D9D9"/>
<rect x="393" y="75" width="14" height="14" fill="#D9D9D9"/>
<rect x="421" y="75" width="14" height="14" fill="#D9D9D9"/>
<rect x="449" y="75" width="14" height="14" fill="#D9D9D9"/>
<rect x="477" y="75" width="14" height="14" fill="#D9D9D9"/>
<rect x="505" y="75" width="17" height="436" fill="#D9D9D9"/>
<rect x="505" y="75" width="17" height="3" fill="white"/>
<rect x="505" y="75" width="3" height="423" fill="white"/>
<rect x="519" y="75" width="3" height="423" fill="#171212"/>
<rect x="85" y="75" width="420" height="3" fill="#171212"/>
<rect x="85" y="495" width="420" height="16" fill="#D9D9D9"/>
<rect x="85" y="75" width="3" height="420" fill="#171212"/>
<rect x="88" y="495" width="417" height="3" fill="white"/>
<rect x="88" y="508" width="417" height="3" fill="#171212"/>
<rect x="85" y="495" width="3" height="16" fill="white"/>
<rect x="505" y="508" width="17" height="3" fill="white"/>
<rect x="508" y="495" width="14" height="3" fill="#171212"/>
<rect x="505" y="495" width="3" height="16" fill="#171212"/>
<rect x="519" y="495" width="3" height="16" fill="white"/>
<rect x="88" y="511.121" width="4.38484" height="2.60992" transform="rotate(-45 88 511.121)" fill="#171212"/>
<rect x="88" y="511" width="4" height="2" fill="#F6DE26"/>
<rect x="1" y="38" width="3" height="579" fill="white"/>
<rect x="86" y="525" width="185" height="80.3793" fill="#5F0707"/>
<rect x="96.207" y="533.931" width="57.4138" height="61.2414" fill="#D9D9D9"/>
<rect x="120.448" y="562" width="22.9655" height="22.9655" fill="#FEFAEB"/>
<rect x="107.689" y="547.966" width="22.9655" height="22.9655" fill="#FF0000"/>
<rect x="96.207" y="533.931" width="1.27586" height="61.2414" fill="#171212"/>
<rect x="96.207" y="533.931" width="57.4138" height="1.27586" fill="#171212"/>
<rect x="163.827" y="533.931" width="25.5172" height="25.5172" fill="#FF0000"/>
<rect x="163.827" y="533.931" width="1.27586" height="25.5172" fill="#171212"/>
<rect x="163.827" y="533.931" width="25.5172" height="1.27586" fill="#171212"/>
<rect x="163.827" y="569.655" width="25.5172" height="25.5172" fill="#F6DE26"/>
<rect x="163.827" y="569.655" width="1.27586" height="25.5172" fill="#171212"/>
<rect x="163.827" y="569.655" width="25.5172" height="1.27586" fill="#171212"/>
<rect x="199.552" y="533.931" width="25.5172" height="25.5172" fill="#001AFF"/>
<rect x="199.552" y="533.931" width="1.27586" height="25.5172" fill="#171212"/>
<rect x="199.552" y="533.931" width="25.5172" height="1.27586" fill="#171212"/>
<rect x="235.275" y="533.931" width="25.5172" height="25.5172" fill="#00A51A"/>
<rect x="235.275" y="533.931" width="1.27586" height="25.5172" fill="#171212"/>
<rect x="235.275" y="533.931" width="25.5172" height="1.27586" fill="#171212"/>
<rect x="235.275" y="569.655" width="25.5172" height="25.5172" fill="#D9D9D9"/>
<rect x="235.275" y="569.655" width="1.27586" height="25.5172" fill="#171212"/>
<rect x="235.275" y="569.655" width="25.5172" height="1.27586" fill="#171212"/>
<rect x="199.552" y="569.655" width="25.5172" height="25.5172" fill="#EC06E1"/>
<rect x="199.552" y="569.655" width="1.27586" height="25.5172" fill="#171212"/>
<rect x="199.552" y="569.655" width="25.5172" height="1.27586" fill="#171212"/>
<rect x="268.448" y="525" width="2.55172" height="80.3793" fill="white"/>
<rect x="86" y="525" width="185" height="2.55172" fill="#171212"/>
<rect x="86" y="602.828" width="185" height="2.55172" fill="white"/>
<rect x="86" y="525" width="2.55172" height="80.3793" fill="#171212"/>
</svg>
