<svg width="917" height="657" viewBox="0 0 917 657" fill="none" xmlns="http://www.w3.org/2000/svg">
<rect width="917" height="657" fill="#F6DE26"/>
<rect x="3.89551" y="3.89673" width="909.209" height="56.8932" fill="#5F0707"/>
<rect x="719.109" y="10.1316" width="53.7579" height="44.4235" fill="#F6DE26"/>
<rect x="849.997" y="10.1316" width="53.7579" height="44.4235" fill="#F6DE26"/>
<rect x="784.553" y="10.1316" width="53.7579" height="44.4235" fill="#F6DE26"/>
<rect x="719.109" y="10.1316" width="2.33728" height="44.4235" fill="#FEFAEB"/>
<rect x="772.867" y="10.1316" width="2.33808" height="53.7579" transform="rotate(90 772.867 10.1316)" fill="#FEFAEB"/>
<rect x="784.553" y="10.1316" width="2.33728" height="44.4235" fill="#FEFAEB"/>
<rect x="838.311" y="10.1316" width="2.33808" height="53.7579" transform="rotate(90 838.311 10.1316)" fill="#FEFAEB"/>
<rect x="849.997" y="10.1316" width="2.33734" height="44.4235" fill="#FEFAEB"/>
<rect x="903.755" y="10.1316" width="2.33808" height="53.7579" transform="rotate(90 903.755 10.1316)" fill="#FEFAEB"/>
<rect x="734.691" y="47.541" width="22.5939" height="1.55872" fill="#171212"/>
<rect x="827.404" y="19.4839" width="5.45552" height="31.164" transform="rotate(90 827.404 19.4839)" fill="#171212"/>
<rect x="797.798" y="45.9822" width="1.55823" height="26.4982" transform="rotate(-180 797.798 45.9822)" fill="#171212"/>
<rect x="796.24" y="45.9822" width="1.55872" height="31.164" transform="rotate(-90 796.24 45.9822)" fill="#171212"/>
<rect x="825.845" y="19.4839" width="1.55817" height="26.4982" fill="#171212"/>
<rect width="36.7835" height="1.9026" transform="matrix(0.706989 0.707225 -0.706989 0.707225 864.587 19.4839)" fill="#171212"/>
<rect width="36.7835" height="1.9026" transform="matrix(0.706989 -0.707225 0.706989 0.707225 863.602 46.1748)" fill="#171212"/>
<rect x="21.8147" y="80.2739" width="873.37" height="549.448" fill="#FEFAEB"/>
<rect x="21.8147" y="80.2739" width="2.3373" height="545.552" fill="#171212"/>
<rect x="890.511" y="80.2739" width="2.33811" height="868.696" transform="rotate(90 890.511 80.2739)" fill="#171212"/>
<rect x="0.779053" y="0.779297" width="2.3373" height="653.103" fill="white"/>
</svg>
